<svg xmlns="http://www.w3.org/2000/svg" viewBox="0 0 48.02 43.86"><defs><style>.cls-1{fill:none;}.cls-2{fill:#9d9d9d;}</style></defs><title>アセット 3</title><g id="レイヤー_2" data-name="レイヤー 2"><g id="レイヤー_1-2" data-name="レイヤー 1"><path class="cls-1" d="M39.69,28.09v-.16l.15-.15a1.54,1.54,0,0,0,.61-.76,3.05,3.05,0,0,0,.61-1.22l.15-.31.31-.15a1.85,1.85,0,0,0,.76-.76c.31-.31.31-.62.46-1.07V23.2a.58.58,0,0,0-.15-.46c0-.15,0-.15-.16-.3l-.3-.31.15-.45c0-.31.15-.62.15-.92a6,6,0,0,0,.16-1.68c0-.3-.16-.76-.16-1.07s-.15-.46-.3-.76c-.31-.31-.46-.61-.76-.92a2.51,2.51,0,0,0-1.07-.61h-.16L40,15.57,39.38,15a2.35,2.35,0,0,0-1.07-.61,2.29,2.29,0,0,0-1.07-.15H36.18c-.31,0-.46.15-.61.15s-.31.15-.46.15L35,14.35c-.16,0-.16.15-.31.15a2.92,2.92,0,0,1,.15,2,5.4,5.4,0,0,1-.91,2.13,3.82,3.82,0,0,1-1.84,1.68,2.57,2.57,0,0,1-.3.76v.16l.15.61-.3.3a.33.33,0,0,0-.31.31.93.93,0,0,0-.15.61v.3c.15.31.15.46.3.77,0,.3.31.61.46.76s.31.31.46.31l.31.15.15.3c.15.46.46.77.61,1.23.15.3.46.45.61.76l.15.15v.15a4.33,4.33,0,0,1,.15,1.38v.76c.74.3,1.34.59,2.07.89a7,7,0,0,1,3.12-1.39v-.11A4,4,0,0,0,39.69,28.09Z"/><path class="cls-2" d="M41.06,29.46a1,1,0,0,1,.15-.61,3.06,3.06,0,0,0,.61-.92,8.56,8.56,0,0,0,.46-1.22,3,3,0,0,0,1.22-1.22A6.11,6.11,0,0,0,44.11,24v-.61a3.7,3.7,0,0,0-.3-1.22c0-.15-.15-.15-.15-.3s.15-.46.15-.61a8.22,8.22,0,0,0,.15-2,4.3,4.3,0,0,0-.15-1.37,2.72,2.72,0,0,0-.31-1.07,5.39,5.39,0,0,0-1.07-1.53,12.7,12.7,0,0,0-1.52-.91,1.47,1.47,0,0,0-.77-.61c-.45-.31-1.06-.61-1.52-.92a5.3,5.3,0,0,0-1.53-.15h-.91c-.31,0-.46,0-.61.15-.31,0-.46.15-.77.15-.15,0-.3.16-.46.16l-.15.15H34c0-.31.15-.61.15-.92a18.9,18.9,0,0,0,.31-2.9,9.56,9.56,0,0,0-.16-2.13c-.15-.46-.3-1.07-.45-1.53a4.66,4.66,0,0,0-1.38-2,5.55,5.55,0,0,0-2.29-1.23A9.35,9.35,0,0,0,29,1.37,5.69,5.69,0,0,0,26.87.31,11.35,11.35,0,0,0,24.58,0H23.35a1.94,1.94,0,0,0-.91.15,2.9,2.9,0,0,0-1.07.31A9,9,0,0,1,20.3.92c-.15,0-.3.15-.61.3a5.6,5.6,0,0,0-1.53,1.07,9.4,9.4,0,0,0-2.59,2.9,4.05,4.05,0,0,0-.92,2,8.84,8.84,0,0,0-.45,2.75,9.64,9.64,0,0,0,.15,2v1.22l.3.61v.15c-.45-.3-1.06-.61-1.52-.92a5.3,5.3,0,0,0-1.53-.15h-.92c-.3,0-.45,0-.61.15a1,1,0,0,0-.91,0c-.15,0-.31.16-.46.16l-.3.15c-.16,0-.31.15-.46.15A6.07,6.07,0,0,1,6.87,14,6.23,6.23,0,0,0,5,16.18a4.46,4.46,0,0,0-.61,1.53,7.31,7.31,0,0,0-.31,1.83,3,3,0,0,0,.15,1.22v.76a.5.5,0,0,0-.15.31,3.64,3.64,0,0,0-.3,1.22v.61c.15.3.15.76.3,1.07A2.36,2.36,0,0,0,5,26a2.18,2.18,0,0,0,.61.46c.15.46.3.76.46,1.22.15.3.45.61.61.91a7,7,0,0,0,.15.77v.46a.15.15,0,0,1-.15.15c-.16.46-.31.61-.46.61s-.46.15-.61.3c-.31.16-.46.16-.77.31s-.61.15-.76.3c-.46.16-.91.46-1.37.61a4.55,4.55,0,0,0-1.07.77A6.64,6.64,0,0,0,.46,34.5,6,6,0,0,0,0,36.79a.94.94,0,0,0,.15.61c0,.15.16.3.31.46s.3.45.61.61a6.25,6.25,0,0,0,1.37.76A13.14,13.14,0,0,0,5.8,40a30.37,30.37,0,0,0,3.51.31c.46.15.76.46,1.22.61a20.85,20.85,0,0,0,5.34,1.22,51.64,51.64,0,0,0,8.4.46,64.67,64.67,0,0,0,7.48-.46,29.28,29.28,0,0,0,3.68-.69l0,0a7.2,7.2,0,1,0,5.42-11.94M14.5,27a1.49,1.49,0,0,1-.61.76l-.15.15v2.45c-.15,0-.31.15-.61.15A10.86,10.86,0,0,0,11.3,31.6a8,8,0,0,0-1.38,1.07A6.4,6.4,0,0,0,8.24,35a8.12,8.12,0,0,0-.61,3.35.56.56,0,0,0,.15.46c-.61,0-1.06-.15-1.67-.15a10.18,10.18,0,0,1-3.06-.76A2.52,2.52,0,0,1,2,37.24c-.15,0-.15-.15-.3-.45A5.6,5.6,0,0,1,2,35.11,2.73,2.73,0,0,1,2.75,34c.3-.15.46-.46.76-.61a9.21,9.21,0,0,1,1.22-.61c.31-.15.61-.15.77-.31s.61-.15.76-.3l.91-.46c.31-.15.46-.31.77-.46.15-.15.46-.46.46-.76a.93.93,0,0,0,.15-.61v-.61a4.33,4.33,0,0,0-.15-1.38v-.15l-.16-.15c-.15-.31-.46-.46-.61-.76-.15-.46-.46-.77-.61-1.23l-.15-.3-.31-.15c-.15,0-.3-.16-.45-.31a1.26,1.26,0,0,1-.46-.76c-.15-.31-.15-.46-.31-.77v-.3a.88.88,0,0,1,.16-.61.33.33,0,0,1,.3-.31l.31-.3-.31-.46v-.15l-.15-.77c0-.3-.15-.76-.15-1.06A4.33,4.33,0,0,1,5.65,18c.15-.46.3-.76.46-1.22a4.45,4.45,0,0,1,1.37-1.53c.3-.15.61-.45.92-.61.15,0,.15-.15.3-.15l.15-.15c.16,0,.31-.15.46-.15s.31-.16.61-.16H11a2.18,2.18,0,0,1,1.07.16,2.41,2.41,0,0,1,1.07.61c.61.15.61.3.76.3a2,2,0,0,0-.15.92v.76c.15.46.3,1.07.46,1.53a3.77,3.77,0,0,0,1.22,1.52,2.35,2.35,0,0,0,1.07.61v.31c0,.3-.16.61-.16.92l-.15.45.31.31c.15.15.15.15.15.3s.15.31.15.61v.31c-.15.46-.15.76-.46,1.07a1.85,1.85,0,0,1-.76.76h-.31l-.15.31A3.05,3.05,0,0,1,14.5,27Zm1.37,2.59c-.15.16-.45.16-.61.31v-.31c0-.3,0-.61.16-.76a3.49,3.49,0,0,0,.61-.92,12,12,0,0,0,.46-1.22,3.17,3.17,0,0,0,1.22-1.22A4.8,4.8,0,0,0,18.32,24l.3.31c.16.61.16,1.22.31,1.83v.77c0,.15-.15.45-.15.61a3.77,3.77,0,0,1-.46.76,3.26,3.26,0,0,1-.92.61A4.59,4.59,0,0,1,15.87,29.61Zm7,6.87L18,30.22c.31-.15.46-.3.77-.45s.45-.46.61-.62l3.51,1.68-.77,1.22,1.22,1.23Zm-3.06-8.24a2.72,2.72,0,0,0,.31-1.07v-.92a14.54,14.54,0,0,0-.31-2.44v-.15l-.15-.15a3.55,3.55,0,0,1-.91-1.38,7,7,0,0,1-.92-2.29l-.15-.3-.31-.15c-.15-.16-.46-.16-.61-.31l-.92-.92a3.19,3.19,0,0,1-.61-1.67,1.62,1.62,0,0,1,.16-1.23,2.29,2.29,0,0,1,.45-.61c.16.31.46.61.62.92s.15.15.3,0c0,0,.31-.46,2.29-4.12,3.82.76,10.38-4.89,10.38-4.89a7.67,7.67,0,0,0,1.37,3.51,17.17,17.17,0,0,1,1.84,5.35,7.76,7.76,0,0,1,.45-.77.79.79,0,0,1,.31.61,1.67,1.67,0,0,1,.15,1.23,9.6,9.6,0,0,1-.46,1.22,2.75,2.75,0,0,1-.76,1.07,3.49,3.49,0,0,1-.92.61l-.3.15-.15.3c-.31.77-.61,1.53-.92,2.29a10,10,0,0,1-.92,1.38l-.15.15v.15a12.15,12.15,0,0,0-.3,2.44v.92a2.88,2.88,0,0,0,.3,1.07l-4.27,2.29Zm6.26,8.55-.46-3.51,1.23-1.23-.77-1.22,3.21-1.68.3.31a4.61,4.61,0,0,0,1.07.76ZM31.44,29c-.15-.15-.45-.3-.61-.46a1.55,1.55,0,0,1-.61-.76,2.17,2.17,0,0,1-.3-.91V26.1a5.2,5.2,0,0,1,.15-1.52c0,.15,0,.15.15.3a2.38,2.38,0,0,0,.92,1.22,2,2,0,0,0,.61.46c.15.46.3.76.46,1.22.15.31.46.61.61.92a6.75,6.75,0,0,0,.15.76A2.56,2.56,0,0,1,31.44,29Zm1.38-3.36-.15-.3-.31-.15c-.15,0-.31-.16-.46-.31s-.46-.46-.46-.76c-.15-.31-.15-.46-.3-.77v-.3a.93.93,0,0,1,.15-.61.33.33,0,0,1,.31-.31l.3-.3-.15-.61v-.16a2.57,2.57,0,0,0,.3-.76,3.82,3.82,0,0,0,1.84-1.68,5.4,5.4,0,0,0,.91-2.13,2.92,2.92,0,0,0-.15-2c.15,0,.15-.15.31-.15l.15.15c.15,0,.3-.15.46-.15s.3-.15.61-.15h1.06a2.29,2.29,0,0,1,1.07.15,2.35,2.35,0,0,1,1.07.61l.61.61.15.15h.16a2.51,2.51,0,0,1,1.07.61c.3.31.45.61.76.92.15.3.15.46.3.76s.16.77.16,1.07a6,6,0,0,1-.16,1.68c0,.3-.15.61-.15.92l-.15.45.3.31c.16.15.16.15.16.3a.58.58,0,0,1,.15.46v.31c-.15.45-.15.76-.46,1.07a1.85,1.85,0,0,1-.76.76l-.31.15-.15.31A3.05,3.05,0,0,1,40.45,27a1.54,1.54,0,0,1-.61.76l-.15.15v.16a4,4,0,0,1-.16,1.37v.11h0A7.32,7.32,0,0,0,36.37,31s0,0,0,0c-.73-.3-1.33-.59-2.07-.89v-.76a4.33,4.33,0,0,0-.15-1.38v-.15L34,27.63c-.15-.31-.46-.46-.61-.76C33.28,26.41,33,26.1,32.82,25.64Zm8,17.22A6.21,6.21,0,1,1,47,36.65,6.22,6.22,0,0,1,40.81,42.86Z"/><path class="cls-2" d="M44,35.85H41.61V33.44a.8.8,0,0,0-.8-.81h0a.8.8,0,0,0-.8.81v2.41H37.59a.8.8,0,0,0-.8.8h0a.8.8,0,0,0,.8.81H40v2.41a.8.8,0,0,0,.8.81h0a.8.8,0,0,0,.8-.81V37.46H44a.8.8,0,0,0,.8-.81h0A.8.8,0,0,0,44,35.85Z"/></g></g></svg>